<svg width="800" height="50" viewBox="0 0 800 50" xmlns="http://www.w3.org/2000/svg">
  <!-- Outer border - gold/bronze like GBA dialog -->
  <rect x="0" y="0" width="800" height="50" rx="8" fill="#C8A84E"/>
  <!-- Inner border -->
  <rect x="3" y="3" width="794" height="44" rx="6" fill="#8B7332"/>
  <!-- Dark inner background -->
  <rect x="6" y="6" width="788" height="38" rx="5" fill="#1A1A2E"/>
  <!-- Subtle inner highlight -->
  <rect x="8" y="8" width="784" height="34" rx="4" fill="#1E1E32"/>

  <!-- Left star decoration -->
  <polygon points="30,20 33,26 40,26 34,30 36,37 30,33 24,37 26,30 20,26 27,26" fill="#C8A84E" opacity="0.5"/>

  <!-- Center text -->
  <text x="400" y="30" text-anchor="middle" font-family="'Courier New', monospace" font-size="12" fill="#C8A84E" opacity="0.7" letter-spacing="3">
    SAIDJAMESPHILIP  ·  RINGIER SOUTH AFRICA
  </text>

  <!-- Right star decoration -->
  <polygon points="770,20 773,26 780,26 774,30 776,37 770,33 764,37 766,30 760,26 767,26" fill="#C8A84E" opacity="0.5"/>
</svg>
