<svg xmlns="http://www.w3.org/2000/svg" width="640" height="320" viewBox="0 0 640 320" style="image-rendering: pixelated;">
  <defs>
    <!-- GBA Pokemon floor tile pattern -->
    <pattern id="floor" width="24" height="24" patternUnits="userSpaceOnUse">
      <rect width="24" height="24" fill="#F0EBE0"/>
      <line x1="0" y1="0" x2="24" y2="24" stroke="#E2DDD0" stroke-width="0.8"/>
      <line x1="24" y1="0" x2="0" y2="24" stroke="#E2DDD0" stroke-width="0.8"/>
      <line x1="12" y1="-12" x2="36" y2="12" stroke="#E2DDD0" stroke-width="0.5"/>
      <line x1="-12" y1="12" x2="12" y2="36" stroke="#E2DDD0" stroke-width="0.5"/>
      <line x1="12" y1="24" x2="36" y2="0" stroke="#E2DDD0" stroke-width="0.5"/>
      <line x1="-12" y1="12" x2="12" y2="-12" stroke="#E2DDD0" stroke-width="0.5"/>
    </pattern>
  </defs>

  <!-- ===== ENVIRONMENT ===== -->

  <!-- Wall -->
  <rect width="640" height="104" fill="#D8CCA0"/>
  <rect y="100" width="640" height="4" fill="#B8AC80"/>

  <!-- Floor -->
  <rect y="104" width="640" height="216" fill="url(#floor)"/>

  <!-- ===== WALL DECORATIONS ===== -->

  <!-- Window 1 -->
  <rect x="60" y="12" width="76" height="56" fill="#586878" rx="2"/>
  <rect x="64" y="16" width="68" height="48" fill="#88C8E8"/>
  <rect x="64" y="16" width="68" height="16" fill="#A0D8F0"/>
  <rect x="72" y="36" width="24" height="6" fill="#F0F8FF" rx="2" opacity="0.7"/>
  <line x1="98" y1="16" x2="98" y2="64" stroke="#586878" stroke-width="3"/>
  <line x1="64" y1="40" x2="132" y2="40" stroke="#586878" stroke-width="3"/>

  <!-- Window 2 -->
  <rect x="280" y="12" width="76" height="56" fill="#586878" rx="2"/>
  <rect x="284" y="16" width="68" height="48" fill="#88C8E8"/>
  <rect x="284" y="16" width="68" height="16" fill="#A0D8F0"/>
  <rect x="300" y="34" width="20" height="6" fill="#F0F8FF" rx="2" opacity="0.7"/>
  <line x1="318" y1="16" x2="318" y2="64" stroke="#586878" stroke-width="3"/>
  <line x1="284" y1="40" x2="352" y2="40" stroke="#586878" stroke-width="3"/>

  <!-- Window 3 -->
  <rect x="500" y="12" width="76" height="56" fill="#586878" rx="2"/>
  <rect x="504" y="16" width="68" height="48" fill="#88C8E8"/>
  <rect x="504" y="16" width="68" height="16" fill="#A0D8F0"/>
  <rect x="520" y="32" width="28" height="6" fill="#F0F8FF" rx="2" opacity="0.7"/>
  <line x1="538" y1="16" x2="538" y2="64" stroke="#586878" stroke-width="3"/>
  <line x1="504" y1="40" x2="572" y2="40" stroke="#586878" stroke-width="3"/>

  <!-- Bulletin board (Japanese scroll style) -->
  <rect x="186" y="16" width="52" height="52" fill="#C8A870" rx="1"/>
  <rect x="190" y="20" width="44" height="44" fill="#F0E8D0"/>
  <rect x="196" y="26" width="32" height="4" fill="#888"/>
  <rect x="196" y="34" width="28" height="3" fill="#AAA"/>
  <rect x="196" y="41" width="32" height="3" fill="#AAA"/>
  <rect x="196" y="48" width="20" height="3" fill="#888"/>
  <!-- Torii gate drawing on scroll -->
  <line x1="208" y="55" x2="208" y2="48" stroke="#C83030" stroke-width="2"/>
  <line x1="220" y="55" x2="220" y2="48" stroke="#C83030" stroke-width="2"/>
  <line x1="204" y1="50" x2="224" y2="50" stroke="#C83030" stroke-width="2"/>

  <!-- Painting (wave/mountain) -->
  <rect x="408" y="20" width="56" height="40" fill="#586878" rx="1"/>
  <rect x="412" y="24" width="48" height="32" fill="#88C8E8"/>
  <!-- Mt Fuji -->
  <polygon points="424,56 436,34 448,56" fill="#8888B0"/>
  <polygon points="432,38 436,34 440,38" fill="#F0F0FF"/>
  <rect x="412" y="50" width="48" height="6" fill="#68A848"/>

  <!-- ===== COUNTER/DESK WITH POKEBALLS ===== -->
  <rect x="160" y="76" width="200" height="28" fill="#78A858"/>
  <rect x="160" y="76" width="200" height="4" fill="#90C068"/>
  <rect x="160" y="100" width="200" height="4" fill="#608840"/>
  <!-- Pokeball 1 -->
  <circle cx="210" cy="90" r="8" fill="#F0F0F0" stroke="#383838" stroke-width="1.5"/>
  <line x1="202" y1="90" x2="218" y2="90" stroke="#383838" stroke-width="1.5"/>
  <path d="M202 90 A8 8 0 0 0 218 90" fill="#C83030"/>
  <circle cx="210" cy="90" r="2.5" fill="#F0F0F0" stroke="#383838" stroke-width="1"/>
  <!-- Pokeball 2 -->
  <circle cx="240" cy="90" r="8" fill="#F0F0F0" stroke="#383838" stroke-width="1.5"/>
  <line x1="232" y1="90" x2="248" y2="90" stroke="#383838" stroke-width="1.5"/>
  <path d="M232 90 A8 8 0 0 0 248 90" fill="#C83030"/>
  <circle cx="240" cy="90" r="2.5" fill="#F0F0F0" stroke="#383838" stroke-width="1"/>
  <!-- Pokeball 3 -->
  <circle cx="270" cy="90" r="8" fill="#F0F0F0" stroke="#383838" stroke-width="1.5"/>
  <line x1="262" y1="90" x2="278" y2="90" stroke="#383838" stroke-width="1.5"/>
  <path d="M262 90 A8 8 0 0 0 278 90" fill="#C83030"/>
  <circle cx="270" cy="90" r="2.5" fill="#F0F0F0" stroke="#383838" stroke-width="1"/>

  <!-- Computer/Monitor on desk left -->
  <rect x="430" y="68" width="44" height="36" fill="#404858" rx="2"/>
  <rect x="434" y="72" width="36" height="24" fill="#183028"/>
  <!-- Screen glow -->
  <rect x="438" y="76" width="12" height="3" fill="#50C878"/>
  <rect x="438" y="82" width="20" height="3" fill="#50C878"/>
  <rect x="438" y="88" width="16" height="3" fill="#50C878"/>
  <rect x="444" y="100" width="20" height="4" fill="#606878"/>
  <rect x="440" y="100" width="28" height="4" fill="#505868"/>

  <!-- ===== SHELVING UNITS (left and right) ===== -->

  <!-- Left shelf unit -->
  <rect x="8" y="104" width="52" height="80" fill="#8098B0"/>
  <rect x="8" y="104" width="52" height="4" fill="#90A8C0"/>
  <rect x="12" y="108" width="20" height="24" fill="#F0F0F0"/>
  <rect x="36" y="108" width="20" height="24" fill="#F0F0F0"/>
  <rect x="14" y="112" width="16" height="4" fill="#C83030" opacity="0.6"/>
  <rect x="14" y="118" width="12" height="4" fill="#3868B8" opacity="0.6"/>
  <rect x="14" y="124" width="16" height="4" fill="#DAA520" opacity="0.6"/>
  <rect x="38" y="112" width="16" height="4" fill="#3868B8" opacity="0.6"/>
  <rect x="38" y="118" width="12" height="4" fill="#C83030" opacity="0.6"/>
  <rect x="38" y="124" width="14" height="4" fill="#50C878" opacity="0.6"/>
  <rect x="8" y="132" width="52" height="4" fill="#7088A0"/>
  <rect x="12" y="136" width="20" height="24" fill="#F0F0F0"/>
  <rect x="36" y="136" width="20" height="24" fill="#F0F0F0"/>
  <rect x="14" y="140" width="16" height="4" fill="#DAA520" opacity="0.6"/>
  <rect x="14" y="146" width="10" height="4" fill="#C83030" opacity="0.6"/>
  <rect x="38" y="140" width="12" height="4" fill="#50C878" opacity="0.6"/>
  <rect x="38" y="146" width="16" height="4" fill="#3868B8" opacity="0.6"/>
  <rect x="8" y="160" width="52" height="4" fill="#7088A0"/>
  <rect x="8" y="180" width="52" height="4" fill="#7088A0"/>

  <!-- Right shelf unit -->
  <rect x="580" y="104" width="52" height="80" fill="#8098B0"/>
  <rect x="580" y="104" width="52" height="4" fill="#90A8C0"/>
  <rect x="584" y="108" width="20" height="24" fill="#F0F0F0"/>
  <rect x="608" y="108" width="20" height="24" fill="#F0F0F0"/>
  <rect x="586" y="112" width="16" height="4" fill="#50C878" opacity="0.6"/>
  <rect x="586" y="118" width="12" height="4" fill="#C83030" opacity="0.6"/>
  <rect x="610" y="112" width="14" height="4" fill="#3868B8" opacity="0.6"/>
  <rect x="610" y="118" width="16" height="4" fill="#DAA520" opacity="0.6"/>
  <rect x="580" y="132" width="52" height="4" fill="#7088A0"/>
  <rect x="584" y="136" width="20" height="24" fill="#F0F0F0"/>
  <rect x="608" y="136" width="20" height="24" fill="#F0F0F0"/>
  <rect x="586" y="140" width="12" height="4" fill="#DAA520" opacity="0.6"/>
  <rect x="610" y="140" width="16" height="4" fill="#C83030" opacity="0.6"/>
  <rect x="580" y="160" width="52" height="4" fill="#7088A0"/>
  <rect x="580" y="180" width="52" height="4" fill="#7088A0"/>

  <!-- ===== POTTED PLANTS ===== -->

  <!-- Plant bottom-left -->
  <g transform="translate(24, 272)">
    <rect x="6" y="20" width="16" height="16" fill="#C87038" rx="1"/>
    <rect x="4" y="20" width="20" height="4" fill="#D88048"/>
    <circle cx="14" cy="14" r="10" fill="#58A838"/>
    <circle cx="8" cy="10" r="7" fill="#68B848"/>
    <circle cx="20" cy="10" r="7" fill="#68B848"/>
    <circle cx="14" cy="6" r="6" fill="#78C858"/>
  </g>

  <!-- Plant bottom-right -->
  <g transform="translate(592, 272)">
    <rect x="6" y="20" width="16" height="16" fill="#C87038" rx="1"/>
    <rect x="4" y="20" width="20" height="4" fill="#D88048"/>
    <circle cx="14" cy="14" r="10" fill="#58A838"/>
    <circle cx="8" cy="10" r="7" fill="#68B848"/>
    <circle cx="20" cy="10" r="7" fill="#68B848"/>
    <circle cx="14" cy="6" r="6" fill="#78C858"/>
  </g>

  <!-- Plant top-left wall -->
  <g transform="translate(8, 60)">
    <rect x="4" y="16" width="12" height="12" fill="#C87038" rx="1"/>
    <rect x="2" y="16" width="16" height="3" fill="#D88048"/>
    <circle cx="10" cy="12" r="8" fill="#58A838"/>
    <circle cx="6" cy="8" r="5" fill="#68B848"/>
    <circle cx="14" cy="8" r="5" fill="#68B848"/>
  </g>

  <!-- ===== ENTRANCE MAT ===== -->
  <rect x="280" y="300" width="80" height="20" fill="#C83030" rx="2"/>
  <rect x="284" y="304" width="72" height="12" fill="#A82828"/>

  <!-- ===== CHARACTER: JAMES (Pokemon Trainer, facing down) ===== -->
  <g transform="translate(260, 150)">
    <!-- Shadow -->
    <ellipse cx="20" cy="66" rx="16" ry="4" fill="#000" opacity="0.12"/>
    <!-- Cap -->
    <rect x="8" y="0" width="24" height="4" fill="#C83030"/>
    <rect x="4" y="4" width="32" height="4" fill="#C83030"/>
    <rect x="4" y="8" width="8" height="4" fill="#C83030"/>
    <rect x="12" y="8" width="8" height="4" fill="#F8F8F8"/>
    <rect x="20" y="8" width="16" height="4" fill="#C83030"/>
    <rect x="0" y="12" width="40" height="4" fill="#C83030"/>
    <!-- Hair + Skin -->
    <rect x="4" y="16" width="4" height="4" fill="#503828"/>
    <rect x="8" y="16" width="24" height="4" fill="#F8B878"/>
    <rect x="32" y="16" width="4" height="4" fill="#503828"/>
    <!-- Face + Eyes -->
    <rect x="8" y="20" width="8" height="4" fill="#F8B878"/>
    <rect x="16" y="20" width="4" height="4" fill="#282838"/>
    <rect x="20" y="20" width="4" height="4" fill="#F8B878"/>
    <rect x="24" y="20" width="4" height="4" fill="#282838"/>
    <rect x="28" y="20" width="4" height="4" fill="#F8B878"/>
    <!-- Face -->
    <rect x="8" y="24" width="24" height="4" fill="#F8B878"/>
    <!-- Mouth -->
    <rect x="12" y="28" width="4" height="4" fill="#F8B878"/>
    <rect x="16" y="28" width="8" height="4" fill="#E85048"/>
    <rect x="24" y="28" width="4" height="4" fill="#F8B878"/>
    <!-- Jacket -->
    <rect x="8" y="32" width="24" height="4" fill="#3868B8"/>
    <rect x="4" y="36" width="32" height="4" fill="#3868B8"/>
    <!-- Jacket + Hands -->
    <rect x="4" y="40" width="4" height="4" fill="#3868B8"/>
    <rect x="8" y="40" width="4" height="4" fill="#F8B878"/>
    <rect x="12" y="40" width="16" height="4" fill="#3868B8"/>
    <rect x="28" y="40" width="4" height="4" fill="#F8B878"/>
    <rect x="32" y="40" width="4" height="4" fill="#3868B8"/>
    <!-- Jacket bottom -->
    <rect x="8" y="44" width="24" height="4" fill="#3868B8"/>
    <!-- Belt -->
    <rect x="12" y="48" width="16" height="4" fill="#282838"/>
    <!-- Pants -->
    <rect x="12" y="52" width="8" height="8" fill="#786048"/>
    <rect x="24" y="52" width="8" height="8" fill="#786048"/>
    <!-- Shoes -->
    <rect x="8" y="60" width="12" height="4" fill="#282838"/>
    <rect x="24" y="60" width="12" height="4" fill="#282838"/>
  </g>

  <!-- Heart speech bubble above James -->
  <g transform="translate(268, 120)">
    <!-- Bubble -->
    <rect x="0" y="0" width="28" height="24" fill="#F8F8F8" rx="4" stroke="#A0A0A0" stroke-width="1"/>
    <!-- Bubble tail -->
    <polygon points="10,24 14,30 18,24" fill="#F8F8F8"/>
    <line x1="10" y1="24" x2="14" y2="30" stroke="#A0A0A0" stroke-width="1"/>
    <line x1="18" y1="24" x2="14" y2="30" stroke="#A0A0A0" stroke-width="1"/>
    <!-- Heart -->
    <path d="M14,8 C14,5 10,4 10,7 C10,10 14,14 14,14 C14,14 18,10 18,7 C18,4 14,5 14,8" fill="#E83838">
      <animate attributeName="d" values="M14,8 C14,5 10,4 10,7 C10,10 14,14 14,14 C14,14 18,10 18,7 C18,4 14,5 14,8;M14,7 C14,4 9,3 9,6 C9,10 14,15 14,15 C14,15 19,10 19,6 C19,3 14,4 14,7;M14,8 C14,5 10,4 10,7 C10,10 14,14 14,14 C14,14 18,10 18,7 C18,4 14,5 14,8" dur="1.5s" repeatCount="indefinite"/>
    </path>
  </g>

  <!-- ===== CHARACTER: MELISSA (Female trainer, facing down) ===== -->
  <g transform="translate(170, 180)">
    <!-- Shadow -->
    <ellipse cx="20" cy="66" rx="16" ry="4" fill="#000" opacity="0.12"/>
    <!-- Hair top -->
    <rect x="8" y="0" width="24" height="4" fill="#885830"/>
    <rect x="4" y="4" width="32" height="4" fill="#885830"/>
    <rect x="4" y="8" width="32" height="4" fill="#885830"/>
    <!-- Hair bow -->
    <rect x="32" y="4" width="12" height="8" fill="#E87888"/>
    <rect x="36" y="8" width="4" height="4" fill="#C83050"/>
    <!-- Face + Hair sides -->
    <rect x="4" y="12" width="8" height="4" fill="#885830"/>
    <rect x="12" y="12" width="16" height="4" fill="#F8B878"/>
    <rect x="28" y="12" width="8" height="4" fill="#885830"/>
    <!-- Face + Eyes -->
    <rect x="4" y="16" width="4" height="4" fill="#885830"/>
    <rect x="8" y="16" width="8" height="4" fill="#F8B878"/>
    <rect x="16" y="16" width="4" height="4" fill="#282838"/>
    <rect x="20" y="16" width="4" height="4" fill="#F8B878"/>
    <rect x="24" y="16" width="4" height="4" fill="#282838"/>
    <rect x="28" y="16" width="4" height="4" fill="#F8B878"/>
    <rect x="32" y="16" width="4" height="4" fill="#885830"/>
    <!-- Face -->
    <rect x="4" y="20" width="4" height="4" fill="#885830"/>
    <rect x="8" y="20" width="24" height="4" fill="#F8B878"/>
    <rect x="32" y="20" width="4" height="4" fill="#885830"/>
    <!-- Mouth -->
    <rect x="4" y="24" width="4" height="4" fill="#885830"/>
    <rect x="8" y="24" width="4" height="4" fill="#F8B878"/>
    <rect x="12" y="24" width="4" height="4" fill="#F8B878"/>
    <rect x="16" y="24" width="8" height="4" fill="#E87888"/>
    <rect x="24" y="24" width="8" height="4" fill="#F8B878"/>
    <rect x="32" y="24" width="4" height="4" fill="#885830"/>
    <!-- Top (cream) -->
    <rect x="8" y="28" width="24" height="4" fill="#F0E8D8"/>
    <rect x="4" y="32" width="32" height="4" fill="#F0E8D8"/>
    <!-- Top + Hands -->
    <rect x="4" y="36" width="4" height="4" fill="#F0E8D8"/>
    <rect x="8" y="36" width="4" height="4" fill="#F8B878"/>
    <rect x="12" y="36" width="16" height="4" fill="#F0E8D8"/>
    <rect x="28" y="36" width="4" height="4" fill="#F8B878"/>
    <rect x="32" y="36" width="4" height="4" fill="#F0E8D8"/>
    <!-- Top bottom -->
    <rect x="8" y="40" width="24" height="4" fill="#F0E8D8"/>
    <!-- Skirt -->
    <rect x="8" y="44" width="24" height="4" fill="#E87888"/>
    <rect x="4" y="48" width="32" height="4" fill="#E87888"/>
    <!-- Legs -->
    <rect x="12" y="52" width="8" height="8" fill="#F8B878"/>
    <rect x="24" y="52" width="8" height="8" fill="#F8B878"/>
    <!-- Shoes -->
    <rect x="8" y="60" width="12" height="4" fill="#C83050"/>
    <rect x="24" y="60" width="12" height="4" fill="#C83050"/>
  </g>

  <!-- ===== CHARACTER: SOPHIA (Espeon-style purple cat) ===== -->
  <g transform="translate(350, 208)">
    <!-- Shadow -->
    <ellipse cx="16" cy="52" rx="14" ry="3" fill="#000" opacity="0.12"/>
    <!-- Ear tips -->
    <rect x="0" y="0" width="4" height="4" fill="#B088D0"/>
    <rect x="28" y="0" width="4" height="4" fill="#B088D0"/>
    <!-- Ears -->
    <rect x="0" y="4" width="8" height="4" fill="#B088D0"/>
    <rect x="24" y="4" width="8" height="4" fill="#B088D0"/>
    <!-- Inner ears + head bridge -->
    <rect x="4" y="8" width="4" height="4" fill="#FFB0C0"/>
    <rect x="8" y="8" width="16" height="4" fill="#B088D0"/>
    <rect x="24" y="8" width="4" height="4" fill="#FFB0C0"/>
    <!-- Head -->
    <rect x="4" y="12" width="24" height="4" fill="#B088D0"/>
    <!-- Forehead gem -->
    <rect x="12" y="12" width="8" height="4" fill="#E83838">
      <animate attributeName="fill" values="#E83838;#FF6060;#E83838" dur="2s" repeatCount="indefinite"/>
    </rect>
    <!-- Eyes -->
    <rect x="4" y="16" width="4" height="4" fill="#B088D0"/>
    <rect x="8" y="16" width="4" height="4" fill="#282838"/>
    <rect x="12" y="16" width="8" height="4" fill="#B088D0"/>
    <rect x="20" y="16" width="4" height="4" fill="#282838"/>
    <rect x="24" y="16" width="4" height="4" fill="#B088D0"/>
    <!-- Eye shine -->
    <rect x="8" y="16" width="2" height="2" fill="#F0F0FF"/>
    <rect x="20" y="16" width="2" height="2" fill="#F0F0FF"/>
    <!-- Face -->
    <rect x="4" y="20" width="24" height="4" fill="#B088D0"/>
    <!-- Nose -->
    <rect x="12" y="24" width="4" height="4" fill="#B088D0"/>
    <rect x="14" y="24" width="4" height="2" fill="#FFB0C0"/>
    <!-- Body -->
    <rect x="4" y="28" width="24" height="4" fill="#B088D0"/>
    <rect x="0" y="32" width="32" height="4" fill="#B088D0"/>
    <rect x="0" y="36" width="32" height="4" fill="#B088D0"/>
    <!-- Paws -->
    <rect x="0" y="40" width="8" height="4" fill="#B088D0"/>
    <rect x="24" y="40" width="8" height="4" fill="#B088D0"/>
    <rect x="2" y="42" width="4" height="2" fill="#D0A8E0"/>
    <rect x="26" y="42" width="4" height="2" fill="#D0A8E0"/>
    <!-- Tail -->
    <rect x="28" y="28" width="4" height="4" fill="#B088D0"/>
    <rect x="32" y="24" width="4" height="4" fill="#B088D0"/>
    <rect x="36" y="20" width="4" height="4" fill="#B088D0"/>
    <rect x="38" y="18" width="4" height="4" fill="#C098E0"/>
    <!-- Label -->
    <text x="16" y="56" font-family="monospace" font-size="9" fill="#8868A0" text-anchor="middle" font-weight="bold">Sophia</text>
  </g>

  <!-- ===== CHARACTER: SAILOR (Umbreon-style dark cat) ===== -->
  <g transform="translate(420, 218)">
    <!-- Shadow -->
    <ellipse cx="16" cy="52" rx="14" ry="3" fill="#000" opacity="0.12"/>
    <!-- Ear tips -->
    <rect x="0" y="0" width="4" height="4" fill="#202040"/>
    <rect x="28" y="0" width="4" height="4" fill="#202040"/>
    <!-- Ears -->
    <rect x="0" y="4" width="8" height="4" fill="#202040"/>
    <rect x="24" y="4" width="8" height="4" fill="#202040"/>
    <!-- Inner ears + head bridge -->
    <rect x="4" y="8" width="4" height="4" fill="#DAA520"/>
    <rect x="8" y="8" width="16" height="4" fill="#202040"/>
    <rect x="24" y="8" width="4" height="4" fill="#DAA520"/>
    <!-- Head -->
    <rect x="4" y="12" width="24" height="4" fill="#202040"/>
    <!-- Forehead ring -->
    <rect x="12" y="12" width="8" height="4" fill="#DAA520">
      <animate attributeName="fill" values="#DAA520;#FFD700;#DAA520" dur="2.5s" repeatCount="indefinite"/>
    </rect>
    <!-- Eyes (red) -->
    <rect x="4" y="16" width="4" height="4" fill="#202040"/>
    <rect x="8" y="16" width="4" height="4" fill="#E83030"/>
    <rect x="12" y="16" width="8" height="4" fill="#202040"/>
    <rect x="20" y="16" width="4" height="4" fill="#E83030"/>
    <rect x="24" y="16" width="4" height="4" fill="#202040"/>
    <!-- Eye shine -->
    <rect x="8" y="16" width="2" height="2" fill="#FF8888"/>
    <rect x="20" y="16" width="2" height="2" fill="#FF8888"/>
    <!-- Face -->
    <rect x="4" y="20" width="24" height="4" fill="#202040"/>
    <!-- Nose -->
    <rect x="12" y="24" width="4" height="4" fill="#202040"/>
    <rect x="14" y="24" width="4" height="2" fill="#606080"/>
    <!-- Body -->
    <rect x="4" y="28" width="24" height="4" fill="#202040"/>
    <!-- Body with gold rings -->
    <rect x="0" y="32" width="4" height="4" fill="#202040"/>
    <rect x="4" y="32" width="4" height="4" fill="#DAA520"/>
    <rect x="8" y="32" width="16" height="4" fill="#202040"/>
    <rect x="24" y="32" width="4" height="4" fill="#DAA520"/>
    <rect x="28" y="32" width="4" height="4" fill="#202040"/>
    <rect x="0" y="36" width="32" height="4" fill="#202040"/>
    <!-- Paws -->
    <rect x="0" y="40" width="8" height="4" fill="#202040"/>
    <rect x="24" y="40" width="8" height="4" fill="#202040"/>
    <!-- Tail -->
    <rect x="28" y="28" width="4" height="4" fill="#202040"/>
    <rect x="32" y="24" width="4" height="4" fill="#202040"/>
    <rect x="36" y="20" width="4" height="4" fill="#202040"/>
    <rect x="38" y="18" width="4" height="4" fill="#DAA520">
      <animate attributeName="fill" values="#DAA520;#FFD700;#DAA520" dur="3s" repeatCount="indefinite"/>
    </rect>
    <!-- Label -->
    <text x="16" y="56" font-family="monospace" font-size="9" fill="#808090" text-anchor="middle" font-weight="bold">Sailor</text>
  </g>

  <!-- ===== CHARACTER: SALVADOR (Growlithe-style dog) ===== -->
  <g transform="translate(480, 170)">
    <!-- Shadow -->
    <ellipse cx="20" cy="60" rx="18" ry="4" fill="#000" opacity="0.12"/>
    <!-- Ears -->
    <rect x="4" y="0" width="8" height="4" fill="#E8A030"/>
    <rect x="28" y="0" width="8" height="4" fill="#E8A030"/>
    <!-- Head top -->
    <rect x="4" y="4" width="32" height="4" fill="#E8A030"/>
    <!-- Head -->
    <rect x="0" y="8" width="40" height="4" fill="#E8A030"/>
    <!-- Face (cream mask) -->
    <rect x="0" y="12" width="4" height="4" fill="#E8A030"/>
    <rect x="4" y="12" width="8" height="4" fill="#F8E8C8"/>
    <rect x="12" y="12" width="16" height="4" fill="#E8A030"/>
    <rect x="28" y="12" width="8" height="4" fill="#F8E8C8"/>
    <rect x="36" y="12" width="4" height="4" fill="#E8A030"/>
    <!-- Eyes -->
    <rect x="4" y="16" width="4" height="4" fill="#F8E8C8"/>
    <rect x="8" y="16" width="4" height="4" fill="#282838"/>
    <rect x="12" y="16" width="16" height="4" fill="#F8E8C8"/>
    <rect x="28" y="16" width="4" height="4" fill="#282838"/>
    <rect x="32" y="16" width="4" height="4" fill="#F8E8C8"/>
    <!-- Eye shine -->
    <rect x="8" y="16" width="2" height="2" fill="#F0F0FF"/>
    <rect x="28" y="16" width="2" height="2" fill="#F0F0FF"/>
    <!-- Face bottom -->
    <rect x="4" y="20" width="32" height="4" fill="#F8E8C8"/>
    <!-- Nose + mouth -->
    <rect x="16" y="20" width="8" height="4" fill="#282838"/>
    <rect x="18" y="22" width="4" height="2" fill="#484848"/>
    <!-- Tongue -->
    <rect x="18" y="24" width="4" height="4" fill="#E87888">
      <animate attributeName="height" values="4;6;4" dur="2s" repeatCount="indefinite"/>
    </rect>
    <!-- Neck -->
    <rect x="8" y="28" width="24" height="4" fill="#E8A030"/>
    <!-- Mane/fur collar -->
    <rect x="4" y="28" width="4" height="4" fill="#C88020"/>
    <rect x="32" y="28" width="4" height="4" fill="#C88020"/>
    <!-- Body -->
    <rect x="4" y="32" width="32" height="4" fill="#E8A030"/>
    <rect x="0" y="36" width="40" height="4" fill="#E8A030"/>
    <!-- Cream belly -->
    <rect x="12" y="36" width="16" height="4" fill="#F8E8C8"/>
    <!-- Body bottom -->
    <rect x="0" y="40" width="40" height="4" fill="#E8A030"/>
    <!-- Legs -->
    <rect x="4" y="44" width="8" height="8" fill="#E8A030"/>
    <rect x="28" y="44" width="8" height="8" fill="#E8A030"/>
    <!-- Paws (cream) -->
    <rect x="4" y="48" width="8" height="4" fill="#F8E8C8"/>
    <rect x="28" y="48" width="8" height="4" fill="#F8E8C8"/>
    <!-- Tail (animated wag) -->
    <g>
      <rect x="36" y="28" width="4" height="4" fill="#E8A030">
        <animate attributeName="x" values="36;40;36" dur="0.6s" repeatCount="indefinite"/>
      </rect>
      <rect x="40" y="24" width="4" height="4" fill="#E8A030">
        <animate attributeName="x" values="40;44;40" dur="0.6s" repeatCount="indefinite"/>
        <animate attributeName="y" values="24;22;24" dur="0.6s" repeatCount="indefinite"/>
      </rect>
      <rect x="44" y="20" width="4" height="4" fill="#F8E8C8">
        <animate attributeName="x" values="44;48;44" dur="0.6s" repeatCount="indefinite"/>
        <animate attributeName="y" values="20;18;20" dur="0.6s" repeatCount="indefinite"/>
      </rect>
    </g>
    <!-- Label -->
    <text x="20" y="64" font-family="monospace" font-size="9" fill="#B08020" text-anchor="middle" font-weight="bold">Salvador</text>
  </g>

  <!-- ===== LABELS FOR TRAINERS ===== -->
  <text x="280" y="228" font-family="monospace" font-size="10" fill="#505868" text-anchor="middle" font-weight="bold">James</text>
  <text x="190" y="258" font-family="monospace" font-size="10" fill="#505868" text-anchor="middle" font-weight="bold">Melissa</text>

  <!-- ===== EXTRA DETAILS ===== -->

  <!-- Small NPC walking (background character for life) -->
  <g transform="translate(100, 240)">
    <ellipse cx="10" cy="28" rx="8" ry="2" fill="#000" opacity="0.08"/>
    <rect x="4" y="0" width="12" height="4" fill="#282838"/>
    <rect x="4" y="4" width="12" height="4" fill="#F8B878"/>
    <rect x="4" y="8" width="12" height="4" fill="#F8B878"/>
    <rect x="4" y="12" width="12" height="8" fill="#58A838"/>
    <rect x="4" y="20" width="4" height="4" fill="#484868"/>
    <rect x="12" y="20" width="4" height="4" fill="#484868"/>
    <rect x="4" y="24" width="4" height="4" fill="#382828"/>
    <rect x="12" y="24" width="4" height="4" fill="#382828"/>
  </g>

  <!-- Loose pokeball on floor -->
  <g transform="translate(540, 250)">
    <circle cx="8" cy="8" r="7" fill="#F0F0F0" stroke="#383838" stroke-width="1"/>
    <line x1="1" y1="8" x2="15" y2="8" stroke="#383838" stroke-width="1"/>
    <path d="M1 8 A7 7 0 0 0 15 8" fill="#C83030"/>
    <circle cx="8" cy="8" r="2" fill="#F0F0F0" stroke="#383838" stroke-width="0.8"/>
  </g>

  <!-- Another loose pokeball -->
  <g transform="translate(130, 290)">
    <circle cx="6" cy="6" r="5" fill="#F0F0F0" stroke="#383838" stroke-width="1"/>
    <line x1="1" y1="6" x2="11" y2="6" stroke="#383838" stroke-width="1"/>
    <path d="M1 6 A5 5 0 0 0 11 6" fill="#C83030"/>
    <circle cx="6" cy="6" r="1.5" fill="#F0F0F0" stroke="#383838" stroke-width="0.8"/>
  </g>

</svg>