<svg xmlns="http://www.w3.org/2000/svg" width="640" height="260" viewBox="0 0 640 260">
  <defs>
    <filter id="glow" x="-50%" y="-50%" width="200%" height="200%">
      <feGaussianBlur in="SourceGraphic" result="blur" stdDeviation="1.5"/>
      <feColorMatrix in="blur" type="matrix" values="0 0 0 0 1 0 0 0 0 0.72 0 0 0 0 0.77 0 0 0 0.5 0" result="g"/>
      <feMerge>
        <feMergeNode in="g"/>
        <feMergeNode in="SourceGraphic"/>
      </feMerge>
    </filter>
  </defs>

  <style>
    .pixel { image-rendering: pixelated; }
    .label { font-family: monospace; font-size: 9px; fill: #FFB7C5; text-anchor: middle; }
    .label-name { font-family: monospace; font-size: 10px; fill: #ffffff; text-anchor: middle; font-weight: bold; }
  </style>

  <!-- Background: night sky gradient -->
  <rect width="640" height="260" fill="#0a0a1a" rx="8"/>

  <!-- Stars -->
  <circle cx="50" cy="20" r="1" fill="#fff" opacity="0.6"><animate attributeName="opacity" values="0.3;0.8;0.3" dur="3s" repeatCount="indefinite"/></circle>
  <circle cx="150" cy="35" r="0.8" fill="#fff" opacity="0.4"><animate attributeName="opacity" values="0.2;0.7;0.2" dur="4s" repeatCount="indefinite"/></circle>
  <circle cx="250" cy="15" r="1" fill="#FFB7C5" opacity="0.5"><animate attributeName="opacity" values="0.3;0.9;0.3" dur="2.5s" repeatCount="indefinite"/></circle>
  <circle cx="350" cy="28" r="0.8" fill="#fff" opacity="0.5"><animate attributeName="opacity" values="0.4;0.8;0.4" dur="3.5s" repeatCount="indefinite"/></circle>
  <circle cx="450" cy="12" r="1" fill="#fff" opacity="0.6"><animate attributeName="opacity" values="0.2;0.9;0.2" dur="2.8s" repeatCount="indefinite"/></circle>
  <circle cx="530" cy="30" r="0.8" fill="#FFB7C5" opacity="0.4"><animate attributeName="opacity" values="0.3;0.7;0.3" dur="4.2s" repeatCount="indefinite"/></circle>
  <circle cx="590" cy="18" r="1" fill="#fff" opacity="0.5"><animate attributeName="opacity" values="0.4;0.8;0.4" dur="3.1s" repeatCount="indefinite"/></circle>
  <circle cx="100" cy="45" r="0.6" fill="#fff" opacity="0.3"><animate attributeName="opacity" values="0.2;0.6;0.2" dur="5s" repeatCount="indefinite"/></circle>
  <circle cx="480" cy="42" r="0.6" fill="#fff" opacity="0.3"><animate attributeName="opacity" values="0.3;0.7;0.3" dur="3.8s" repeatCount="indefinite"/></circle>

  <!-- Moon -->
  <circle cx="560" cy="45" r="18" fill="#FFF5EE" opacity="0.15"/>
  <circle cx="560" cy="45" r="14" fill="#FFF5EE" opacity="0.1"/>
  <circle cx="562" cy="43" r="10" fill="#FFF5EE" opacity="0.08"/>

  <!-- Sakura tree left -->
  <rect x="30" y="120" width="6" height="80" fill="#8B4513" rx="1"/>
  <rect x="20" y="110" width="8" height="4" fill="#8B4513" transform="rotate(-30 24 112)"/>
  <rect x="33" y="100" width="8" height="3" fill="#8B4513" transform="rotate(25 37 101)"/>
  <!-- Blossoms -->
  <circle cx="15" cy="95" r="12" fill="#FFB7C5" opacity="0.4"><animate attributeName="opacity" values="0.3;0.5;0.3" dur="4s" repeatCount="indefinite"/></circle>
  <circle cx="35" cy="85" r="14" fill="#FF9EAF" opacity="0.35"><animate attributeName="opacity" values="0.25;0.45;0.25" dur="5s" repeatCount="indefinite"/></circle>
  <circle cx="45" cy="100" r="10" fill="#FFB7C5" opacity="0.4"><animate attributeName="opacity" values="0.3;0.5;0.3" dur="3.5s" repeatCount="indefinite"/></circle>
  <circle cx="25" cy="105" r="11" fill="#FFC0CB" opacity="0.3"><animate attributeName="opacity" values="0.2;0.4;0.2" dur="4.5s" repeatCount="indefinite"/></circle>

  <!-- Falling petals -->
  <ellipse rx="2" ry="1.2" fill="#FFB7C5" opacity="0.6">
    <animate attributeName="cx" values="60;75;90" dur="8s" repeatCount="indefinite"/>
    <animate attributeName="cy" values="90;160;230" dur="8s" repeatCount="indefinite"/>
    <animate attributeName="opacity" values="0.7;0.4;0" dur="8s" repeatCount="indefinite"/>
    <animateTransform attributeName="transform" type="rotate" values="0;180;360" dur="8s" repeatCount="indefinite"/>
  </ellipse>
  <ellipse rx="1.8" ry="1" fill="#FFC0CB" opacity="0.5">
    <animate attributeName="cx" values="40;60;55" dur="10s" repeatCount="indefinite"/>
    <animate attributeName="cy" values="100;170;240" dur="10s" repeatCount="indefinite"/>
    <animate attributeName="opacity" values="0.6;0.3;0" dur="10s" repeatCount="indefinite"/>
    <animateTransform attributeName="transform" type="rotate" values="45;200;405" dur="10s" repeatCount="indefinite"/>
  </ellipse>
  <ellipse rx="1.5" ry="1" fill="#FFB7C5" opacity="0.4">
    <animate attributeName="cx" values="550;570;560" dur="12s" repeatCount="indefinite"/>
    <animate attributeName="cy" values="60;150;240" dur="12s" repeatCount="indefinite"/>
    <animate attributeName="opacity" values="0.5;0.3;0" dur="12s" repeatCount="indefinite"/>
  </ellipse>

  <!-- Ground / grass -->
  <rect x="0" y="200" width="640" height="60" fill="#1a2a1a" rx="0"/>
  <rect x="0" y="198" width="640" height="4" fill="#2d4a2d" rx="1"/>

  <!-- Torii gate background right -->
  <g opacity="0.2">
    <rect x="560" y="130" width="8" height="70" fill="#E2414C"/>
    <rect x="600" y="130" width="8" height="70" fill="#E2414C"/>
    <rect x="553" y="132" width="62" height="6" fill="#E2414C" rx="2"/>
    <rect x="556" y="142" width="56" height="4" fill="#E2414C"/>
  </g>

  <!-- ========== PIXEL ART CHARACTERS ========== -->

  <!-- CHARACTER 1: James (Pokemon Trainer style) - pixel art -->
  <g transform="translate(120, 140)">
    <!-- Shadow -->
    <ellipse cx="16" cy="58" rx="12" ry="3" fill="#000" opacity="0.2"/>
    <!-- Feet -->
    <rect x="8" y="52" width="6" height="4" fill="#1a1a3a"/>
    <rect x="18" y="52" width="6" height="4" fill="#1a1a3a"/>
    <!-- Legs -->
    <rect x="9" y="44" width="5" height="9" fill="#3F3F74"/>
    <rect x="18" y="44" width="5" height="9" fill="#3F3F74"/>
    <!-- Body -->
    <rect x="7" y="28" width="18" height="17" fill="#E2414C"/>
    <!-- Belt -->
    <rect x="7" y="42" width="18" height="3" fill="#1a1a3a"/>
    <rect x="14" y="42" width="4" height="3" fill="#DAA520"/>
    <!-- Arms -->
    <rect x="2" y="30" width="5" height="12" fill="#E2414C"/>
    <rect x="25" y="30" width="5" height="12" fill="#E2414C"/>
    <!-- Hands -->
    <rect x="2" y="40" width="5" height="4" fill="#FFDAB9"/>
    <rect x="25" y="40" width="5" height="4" fill="#FFDAB9"/>
    <!-- Pokeball in hand -->
    <circle cx="28" cy="40" r="3" fill="#fff" stroke="#1a1a3a" stroke-width="0.5"/>
    <rect x="25" y="39.5" width="6" height="1" fill="#1a1a3a"/>
    <semicircle/>
    <path d="M25 40 A3 3 0 0 0 31 40" fill="#E2414C"/>
    <!-- Head -->
    <rect x="8" y="14" width="16" height="14" fill="#FFDAB9" rx="2"/>
    <!-- Eyes -->
    <rect x="12" y="20" width="3" height="3" fill="#1a1a3a" rx="1"/>
    <rect x="18" y="20" width="3" height="3" fill="#1a1a3a" rx="1"/>
    <!-- Eye shine -->
    <rect x="13" y="20" width="1" height="1" fill="#fff"/>
    <rect x="19" y="20" width="1" height="1" fill="#fff"/>
    <!-- Mouth -->
    <rect x="14" y="25" width="4" height="1" fill="#E2414C" rx="0.5"/>
    <!-- Hair -->
    <rect x="6" y="10" width="20" height="7" fill="#2a1a0a" rx="2"/>
    <rect x="6" y="14" width="3" height="5" fill="#2a1a0a"/>
    <rect x="23" y="14" width="3" height="5" fill="#2a1a0a"/>
    <!-- Cap -->
    <rect x="5" y="8" width="22" height="5" fill="#E2414C" rx="2"/>
    <rect x="3" y="12" width="8" height="2" fill="#E2414C" rx="1"/>
    <rect x="10" y="9" width="6" height="3" fill="#fff" rx="1"/>
    <!-- Label -->
    <text x="16" y="70" class="label-name">James</text>
  </g>

  <!-- CHARACTER 2: Melissa (Pokemon Trainer style) -->
  <g transform="translate(200, 142)">
    <!-- Shadow -->
    <ellipse cx="16" cy="56" rx="11" ry="3" fill="#000" opacity="0.2"/>
    <!-- Feet -->
    <rect x="8" y="50" width="6" height="4" fill="#8B4513"/>
    <rect x="18" y="50" width="6" height="4" fill="#8B4513"/>
    <!-- Legs -->
    <rect x="9" y="42" width="5" height="9" fill="#3F3F74"/>
    <rect x="18" y="42" width="5" height="9" fill="#3F3F74"/>
    <!-- Skirt -->
    <rect x="6" y="38" width="20" height="6" fill="#FFB7C5" rx="1"/>
    <!-- Body -->
    <rect x="7" y="26" width="18" height="13" fill="#FFF5EE"/>
    <!-- Scarf -->
    <rect x="9" y="24" width="14" height="4" fill="#E2414C" rx="1"/>
    <!-- Arms -->
    <rect x="2" y="28" width="5" height="10" fill="#FFF5EE"/>
    <rect x="25" y="28" width="5" height="10" fill="#FFF5EE"/>
    <!-- Hands -->
    <rect x="2" y="37" width="5" height="4" fill="#FFDAB9"/>
    <rect x="25" y="37" width="5" height="4" fill="#FFDAB9"/>
    <!-- Head -->
    <rect x="8" y="10" width="16" height="14" fill="#FFDAB9" rx="2"/>
    <!-- Eyes -->
    <rect x="12" y="16" width="3" height="3" fill="#3F3F74" rx="1"/>
    <rect x="18" y="16" width="3" height="3" fill="#3F3F74" rx="1"/>
    <!-- Eye shine -->
    <rect x="13" y="16" width="1" height="1" fill="#fff"/>
    <rect x="19" y="16" width="1" height="1" fill="#fff"/>
    <!-- Eyelashes -->
    <rect x="11" y="15" width="1" height="1" fill="#2a1a0a"/>
    <rect x="21" y="15" width="1" height="1" fill="#2a1a0a"/>
    <!-- Mouth -->
    <rect x="14" y="21" width="4" height="1.5" fill="#FF6B81" rx="0.5"/>
    <!-- Hair -->
    <rect x="5" y="6" width="22" height="10" fill="#5a3825" rx="3"/>
    <rect x="5" y="12" width="4" height="14" fill="#5a3825" rx="1"/>
    <rect x="23" y="12" width="4" height="14" fill="#5a3825" rx="1"/>
    <!-- Hair bow -->
    <rect x="22" y="8" width="6" height="4" fill="#FFB7C5" rx="1"/>
    <rect x="24" y="9" width="2" height="2" fill="#E2414C" rx="1"/>
    <!-- Label -->
    <text x="16" y="68" class="label-name">Melissa</text>
  </g>

  <!-- CHARACTER 3: Sophia (Cat - Espeon/Japanese lucky cat style) -->
  <g transform="translate(310, 162)">
    <!-- Shadow -->
    <ellipse cx="14" cy="38" rx="10" ry="2.5" fill="#000" opacity="0.2"/>
    <!-- Body -->
    <ellipse cx="14" cy="28" rx="11" ry="9" fill="#C9A0DC"/>
    <!-- Paws -->
    <rect x="5" y="33" width="5" height="4" fill="#C9A0DC" rx="2"/>
    <rect x="18" y="33" width="5" height="4" fill="#C9A0DC" rx="2"/>
    <!-- Paw detail -->
    <circle cx="7.5" cy="35.5" r="1" fill="#B088C0"/>
    <circle cx="20.5" cy="35.5" r="1" fill="#B088C0"/>
    <!-- Tail -->
    <path d="M25 26 Q35 20 30 12" stroke="#C9A0DC" stroke-width="3" fill="none" stroke-linecap="round">
      <animate attributeName="d" values="M25 26 Q35 20 30 12;M25 26 Q38 22 32 14;M25 26 Q35 20 30 12" dur="3s" repeatCount="indefinite"/>
    </path>
    <!-- Head -->
    <ellipse cx="14" cy="16" rx="10" ry="9" fill="#C9A0DC"/>
    <!-- Ears -->
    <polygon points="5,10 2,0 10,6" fill="#C9A0DC"/>
    <polygon points="23,10 26,0 18,6" fill="#C9A0DC"/>
    <polygon points="6,9 4,2 10,7" fill="#FFB7C5"/>
    <polygon points="22,9 24,2 18,7" fill="#FFB7C5"/>
    <!-- Eyes -->
    <ellipse cx="10" cy="16" rx="2.5" ry="2.5" fill="#3F3F74"/>
    <ellipse cx="18" cy="16" rx="2.5" ry="2.5" fill="#3F3F74"/>
    <circle cx="11" cy="15" r="1" fill="#fff"/>
    <circle cx="19" cy="15" r="1" fill="#fff"/>
    <!-- Nose -->
    <polygon points="14,19 12.5,20.5 15.5,20.5" fill="#FFB7C5"/>
    <!-- Whiskers -->
    <line x1="1" y1="18" x2="9" y2="19" stroke="#B088C0" stroke-width="0.5"/>
    <line x1="1" y1="21" x2="9" y2="20.5" stroke="#B088C0" stroke-width="0.5"/>
    <line x1="19" y1="19" x2="27" y2="18" stroke="#B088C0" stroke-width="0.5"/>
    <line x1="19" y1="20.5" x2="27" y2="21" stroke="#B088C0" stroke-width="0.5"/>
    <!-- Forehead gem (Espeon style) -->
    <circle cx="14" cy="10" r="2" fill="#E2414C">
      <animate attributeName="opacity" values="0.6;1;0.6" dur="2s" repeatCount="indefinite"/>
    </circle>
    <!-- Label -->
    <text x="14" y="50" class="label">Sophia</text>
  </g>

  <!-- CHARACTER 4: Sailor (Cat - Umbreon/ninja cat style) -->
  <g transform="translate(390, 162)">
    <!-- Shadow -->
    <ellipse cx="14" cy="38" rx="10" ry="2.5" fill="#000" opacity="0.2"/>
    <!-- Body -->
    <ellipse cx="14" cy="28" rx="11" ry="9" fill="#1a1a3a"/>
    <!-- Body rings -->
    <ellipse cx="14" cy="28" rx="7" ry="5" fill="none" stroke="#DAA520" stroke-width="0.8" opacity="0.6">
      <animate attributeName="opacity" values="0.4;0.8;0.4" dur="3s" repeatCount="indefinite"/>
    </ellipse>
    <!-- Paws -->
    <rect x="5" y="33" width="5" height="4" fill="#1a1a3a" rx="2"/>
    <rect x="18" y="33" width="5" height="4" fill="#1a1a3a" rx="2"/>
    <!-- Tail -->
    <path d="M25 26 Q35 22 33 14" stroke="#1a1a3a" stroke-width="3" fill="none" stroke-linecap="round">
      <animate attributeName="d" values="M25 26 Q35 22 33 14;M25 26 Q32 18 28 12;M25 26 Q35 22 33 14" dur="4s" repeatCount="indefinite"/>
    </path>
    <circle cx="33" cy="14" r="1.5" fill="#DAA520" opacity="0.7">
      <animate attributeName="opacity" values="0.4;0.9;0.4" dur="3s" repeatCount="indefinite"/>
      <animate attributeName="cx" values="33;28;33" dur="4s" repeatCount="indefinite"/>
      <animate attributeName="cy" values="14;12;14" dur="4s" repeatCount="indefinite"/>
    </circle>
    <!-- Head -->
    <ellipse cx="14" cy="16" rx="10" ry="9" fill="#1a1a3a"/>
    <!-- Ears -->
    <polygon points="5,10 2,0 10,6" fill="#1a1a3a"/>
    <polygon points="23,10 26,0 18,6" fill="#1a1a3a"/>
    <polygon points="6,9 4,3 9,7" fill="#DAA520" opacity="0.5"/>
    <polygon points="22,9 24,3 19,7" fill="#DAA520" opacity="0.5"/>
    <!-- Eyes (red Umbreon style) -->
    <ellipse cx="10" cy="15" rx="2.5" ry="2" fill="#E2414C"/>
    <ellipse cx="18" cy="15" rx="2.5" ry="2" fill="#E2414C"/>
    <circle cx="11" cy="14.5" r="0.8" fill="#FFB7C5"/>
    <circle cx="19" cy="14.5" r="0.8" fill="#FFB7C5"/>
    <!-- Forehead ring -->
    <circle cx="14" cy="9" r="2" fill="#DAA520">
      <animate attributeName="opacity" values="0.5;1;0.5" dur="2.5s" repeatCount="indefinite"/>
    </circle>
    <!-- Nose -->
    <polygon points="14,18 12.5,19.5 15.5,19.5" fill="#666"/>
    <!-- Whiskers -->
    <line x1="1" y1="17" x2="9" y2="18" stroke="#DAA520" stroke-width="0.4" opacity="0.5"/>
    <line x1="1" y1="20" x2="9" y2="19.5" stroke="#DAA520" stroke-width="0.4" opacity="0.5"/>
    <line x1="19" y1="18" x2="27" y2="17" stroke="#DAA520" stroke-width="0.4" opacity="0.5"/>
    <line x1="19" y1="19.5" x2="27" y2="20" stroke="#DAA520" stroke-width="0.4" opacity="0.5"/>
    <!-- Label -->
    <text x="14" y="50" class="label">Sailor</text>
  </g>

  <!-- CHARACTER 5: Salvador (Dog - Arcanine/Shiba style) -->
  <g transform="translate(470, 155)">
    <!-- Shadow -->
    <ellipse cx="18" cy="46" rx="14" ry="3" fill="#000" opacity="0.2"/>
    <!-- Tail -->
    <path d="M34 22 Q45 15 42 8" stroke="#DAA520" stroke-width="4" fill="none" stroke-linecap="round">
      <animate attributeName="d" values="M34 22 Q45 15 42 8;M34 22 Q48 12 44 5;M34 22 Q42 18 40 10;M34 22 Q45 15 42 8" dur="1.5s" repeatCount="indefinite"/>
    </path>
    <!-- Body -->
    <ellipse cx="18" cy="32" rx="15" ry="11" fill="#DAA520"/>
    <!-- Belly -->
    <ellipse cx="16" cy="35" rx="9" ry="6" fill="#FFF5EE"/>
    <!-- Back legs -->
    <rect x="25" y="38" width="6" height="7" fill="#DAA520" rx="2"/>
    <!-- Front legs -->
    <rect x="7" y="38" width="6" height="7" fill="#DAA520" rx="2"/>
    <!-- Paws -->
    <rect x="6" y="42" width="7" height="4" fill="#FFF5EE" rx="2"/>
    <rect x="24" y="42" width="7" height="4" fill="#FFF5EE" rx="2"/>
    <!-- Head -->
    <ellipse cx="16" cy="18" rx="12" ry="11" fill="#DAA520"/>
    <!-- Face mask -->
    <ellipse cx="16" cy="21" rx="8" ry="7" fill="#FFF5EE"/>
    <!-- Ears (floppy Arcanine style) -->
    <polygon points="5,12 0,2 10,8" fill="#DAA520"/>
    <polygon points="27,12 32,2 22,8" fill="#DAA520"/>
    <polygon points="6,11 2,4 9,8" fill="#B8860B"/>
    <polygon points="26,11 30,4 23,8" fill="#B8860B"/>
    <!-- Eyes -->
    <ellipse cx="11" cy="17" rx="2.5" ry="2.5" fill="#1a1a3a"/>
    <ellipse cx="21" cy="17" rx="2.5" ry="2.5" fill="#1a1a3a"/>
    <circle cx="12" cy="16" r="1" fill="#fff"/>
    <circle cx="22" cy="16" r="1" fill="#fff"/>
    <!-- Eyebrows (expressive Arcanine) -->
    <rect x="8" y="13" width="5" height="1.5" fill="#B8860B" rx="0.5"/>
    <rect x="19" y="13" width="5" height="1.5" fill="#B8860B" rx="0.5"/>
    <!-- Nose -->
    <ellipse cx="16" cy="22" rx="2.5" ry="2" fill="#1a1a3a"/>
    <ellipse cx="16" cy="21.5" rx="1" ry="0.5" fill="#666"/>
    <!-- Mouth -->
    <path d="M13 24 Q16 27 19 24" stroke="#1a1a3a" stroke-width="0.8" fill="none"/>
    <!-- Tongue -->
    <ellipse cx="16" cy="26" rx="2" ry="2.5" fill="#FF6B81" opacity="0.8">
      <animate attributeName="ry" values="2.5;3;2.5" dur="2s" repeatCount="indefinite"/>
    </ellipse>
    <!-- Mane/fluff -->
    <path d="M4 14 Q2 20 5 25" stroke="#B8860B" stroke-width="2" fill="none"/>
    <path d="M28 14 Q30 20 27 25" stroke="#B8860B" stroke-width="2" fill="none"/>
    <!-- Label -->
    <text x="18" y="58" class="label">Salvador</text>
  </g>

  <!-- Floating sparkles around characters -->
  <circle cx="160" cy="145" r="1.5" fill="#FFB7C5">
    <animate attributeName="opacity" values="0;1;0" dur="2s" repeatCount="indefinite"/>
    <animate attributeName="cy" values="145;138;145" dur="2s" repeatCount="indefinite"/>
  </circle>
  <circle cx="240" cy="150" r="1" fill="#DAA520">
    <animate attributeName="opacity" values="0;1;0" dur="3s" begin="1s" repeatCount="indefinite"/>
    <animate attributeName="cy" values="150;142;150" dur="3s" begin="1s" repeatCount="indefinite"/>
  </circle>
  <circle cx="340" cy="165" r="1.2" fill="#E2414C">
    <animate attributeName="opacity" values="0;0.8;0" dur="2.5s" begin="0.5s" repeatCount="indefinite"/>
    <animate attributeName="cy" values="165;158;165" dur="2.5s" begin="0.5s" repeatCount="indefinite"/>
  </circle>
  <circle cx="420" cy="160" r="1" fill="#FFB7C5">
    <animate attributeName="opacity" values="0;1;0" dur="3.5s" begin="1.5s" repeatCount="indefinite"/>
    <animate attributeName="cy" values="160;153;160" dur="3.5s" begin="1.5s" repeatCount="indefinite"/>
  </circle>
  <circle cx="510" cy="158" r="1.3" fill="#DAA520">
    <animate attributeName="opacity" values="0;0.9;0" dur="2.8s" begin="0.8s" repeatCount="indefinite"/>
    <animate attributeName="cy" values="158;150;158" dur="2.8s" begin="0.8s" repeatCount="indefinite"/>
  </circle>

  <!-- Ground details - grass tufts -->
  <rect x="80" y="198" width="3" height="4" fill="#3a5a3a" rx="1"/>
  <rect x="160" y="197" width="2" height="5" fill="#3a5a3a" rx="1"/>
  <rect x="280" y="198" width="3" height="4" fill="#3a5a3a" rx="1"/>
  <rect x="380" y="197" width="2" height="5" fill="#3a5a3a" rx="1"/>
  <rect x="500" y="198" width="3" height="4" fill="#3a5a3a" rx="1"/>
  <rect x="550" y="197" width="2" height="5" fill="#3a5a3a" rx="1"/>

  <!-- Path stones -->
  <ellipse cx="140" cy="210" rx="8" ry="3" fill="#2a3a2a" opacity="0.5"/>
  <ellipse cx="220" cy="215" rx="6" ry="2.5" fill="#2a3a2a" opacity="0.4"/>
  <ellipse cx="340" cy="212" rx="7" ry="3" fill="#2a3a2a" opacity="0.5"/>
  <ellipse cx="450" cy="218" rx="6" ry="2.5" fill="#2a3a2a" opacity="0.4"/>
  <ellipse cx="520" cy="210" rx="8" ry="3" fill="#2a3a2a" opacity="0.5"/>
</svg>